<svg width="126" height="73" viewBox="0 0 126 73" fill="none" xmlns="http://www.w3.org/2000/svg">
<path d="M47.1913 73.0003H45.3637V63.5693C45.3637 60.734 46.3077 58.3003 48.2004 56.2731C50.0884 54.2411 52.3624 53.2275 55.0131 53.2275H61.5793V55.0259H55.0131C52.86 55.0259 51.0185 55.862 49.4885 57.5249C47.9539 59.1925 47.1913 61.2151 47.1913 63.588V73.0003ZM110.384 55.1006V53.2275H117.216H119.169H126V55.1006H119.169V72.6967H117.216V55.1006H110.384ZM81.9709 72.706H80.148V55.0259H75.5209C73.3911 55.0259 71.5542 55.8153 70.0103 57.3848C68.4711 58.9543 67.6991 60.8414 67.6991 63.0462V72.706H65.8716V63.0322C65.8716 60.3416 66.8156 58.0341 68.7082 56.1142C70.5963 54.1851 72.8703 53.2275 75.5209 53.2275H81.9709V72.706ZM91.8156 63.1443H105.697C105.697 60.8928 104.934 58.9776 103.413 57.3941C101.893 55.82 100.047 55.0259 97.875 55.0259C95.7265 55.0259 93.885 55.8246 92.3504 57.4222C90.8204 59.0197 90.0531 60.9535 90.0531 63.2097C90.0531 65.4051 90.8158 67.2875 92.3364 68.8523C93.8571 70.4172 95.7033 71.1972 97.875 71.1972H105.697V73.0003H97.875C95.201 73.0003 92.927 72.0427 91.0483 70.1369C89.1696 68.2264 88.2302 65.9189 88.2302 63.2097C88.2302 60.4817 89.1742 58.1368 91.0623 56.175C92.9549 54.2084 95.2243 53.2275 97.875 53.2275C100.526 53.2275 102.795 54.1991 104.688 56.1423C106.576 58.0808 107.52 60.4303 107.52 63.177V64.9473H91.8156V63.1443ZM16.7504 53.1621V72.6406H14.9275V54.9605H9.64938C7.49629 54.9605 5.65477 55.7312 4.12482 57.2633C2.59022 58.8048 1.82757 60.6592 1.82757 62.836C1.82757 65.0314 2.58557 66.9138 4.10622 68.488C5.62687 70.0528 7.47304 70.8376 9.64938 70.8376H13.165V72.6406H9.64938C6.97546 72.6406 4.69681 71.683 2.81808 69.7679C0.939362 67.8574 0 65.5452 0 62.836C0 60.1688 0.939362 57.8846 2.81808 55.9975C4.69681 54.1057 6.97546 53.1621 9.64938 53.1621H16.7504ZM23.0097 53.1621H24.8326V61.0516H37.2815V53.1621H39.1091V72.6406H37.2815V62.85H24.8326V72.6406H23.0097V53.1621Z" fill="#444444"/>
<path d="M69.9967 36.4206C66.2021 38.7234 62.1935 41.1851 58.2779 43.2451C58.1059 43.3338 57.9245 43.4272 57.7385 43.5113C57.5525 43.5954 57.3665 43.6748 57.1944 43.7449C57.0177 43.8103 56.841 43.8757 56.655 43.9364C56.4736 43.9971 56.2923 44.0485 56.1202 44.0905C55.404 44.2727 54.7158 44.3568 54.0369 44.3194C53.3533 44.2821 52.679 44.1232 51.9954 43.8196C51.8884 43.7682 51.7815 43.7169 51.6745 43.6608L51.6559 43.6468C48.7774 41.9699 48.6611 39.298 48.5681 35.9722C45.8988 35.449 43.5504 34.1551 41.5229 32.0905C38.8071 29.3299 37.4492 25.99 37.4492 22.071C37.4492 18.2126 38.8071 14.9195 41.5229 12.1916C43.5458 10.155 45.8849 8.87977 48.5448 8.36127V7.16547C48.5448 6.73573 48.5681 6.32 48.6099 5.92296C48.6565 5.52124 48.7216 5.13821 48.8099 4.77387C49.1494 3.34918 49.833 2.12535 50.8188 1.27054C51.7489 0.471781 52.9394 0 54.367 0C54.7018 0 55.046 0.0280266 55.3947 0.0840799C55.7482 0.140133 56.1016 0.219542 56.455 0.326977C56.8177 0.434413 57.1851 0.569875 57.5571 0.733363C57.9199 0.896852 58.2919 1.0837 58.6639 1.29857C67.346 6.33402 76.0653 11.3274 84.7149 16.4096C86.5983 17.5587 88.2724 19.2636 88.5142 21.5758C88.8072 24.3458 87.4446 26.004 85.2869 27.3913C81.8178 29.6148 69.9967 36.4206 69.9967 36.4206ZM50.8607 36.2291H50.8979C51.0002 39.6857 51.2746 40.0407 51.921 40.8348C51.9907 40.9235 52.0651 40.9983 52.1395 41.073C52.1953 41.1291 52.2558 41.1851 52.3069 41.2458C52.7952 41.6849 53.2696 41.9138 53.7764 41.9885C54.5623 42.1007 55.6505 41.7597 56.4132 41.4607C56.841 41.2926 57.306 41.1104 57.7571 40.8535C64.4628 37.0979 75.0609 30.8433 84.394 25.3127C84.8916 25.0184 85.3381 24.5934 85.6729 24.0982C86.1844 23.3415 86.4402 22.4306 86.2356 21.5758C85.9798 20.4828 85.0265 19.4785 83.7849 18.5863L83.4593 18.3901L81.7155 17.3718L57.5013 3.3305C57.2223 3.17168 56.9479 3.03155 56.6829 2.9101C56.4132 2.78865 56.1527 2.68588 55.8923 2.60648C55.6226 2.5224 55.3575 2.457 55.1064 2.41496C54.8553 2.37759 54.6088 2.35424 54.367 2.35424C53.4277 2.35424 52.5953 2.67654 51.9721 3.41925C51.5164 3.95642 51.2234 4.65709 51.0653 5.39512C51.0049 5.66605 50.9584 5.94631 50.9305 6.24059C50.9025 6.52553 50.8886 6.8385 50.8886 7.16547V8.09969C51.0607 8.09502 51.3164 8.09502 51.3862 8.09502H61.6541V36.2384H59.0173V10.6922H51.3862C48.2798 10.6922 45.6198 11.8039 43.4063 14.0227C41.1927 16.2461 40.0859 18.9226 40.0859 22.071C40.0859 25.2473 41.1881 27.9659 43.383 30.2361C45.5826 32.5015 48.2472 33.6366 51.3862 33.6366H56.4736V36.2384H51.3862C51.2095 36.2384 51.0374 36.2337 50.8607 36.2291Z" fill="#03840E"/>
</svg>
