<svg width="126" height="73" viewBox="0 0 126 73" fill="none" xmlns="http://www.w3.org/2000/svg">
<path d="M47.1913 73H45.3637V63.5691C45.3637 60.7337 46.3077 58.3001 48.2004 56.2728C50.0884 54.2409 52.3624 53.2273 55.0131 53.2273H61.5793V55.0256H55.0131C52.86 55.0256 51.0185 55.8618 49.4885 57.5247C47.9539 59.1923 47.1913 61.2148 47.1913 63.5878V73ZM110.384 55.1004V53.2273H117.216H119.169H126V55.1004H119.169V72.6964H117.216V55.1004H110.384ZM81.9709 72.7058H80.148V55.0256H75.5209C73.3911 55.0256 71.5542 55.8151 70.0103 57.3845C68.4711 58.954 67.6991 60.8412 67.6991 63.0459V72.7058H65.8716V63.0319C65.8716 60.3414 66.8156 58.0338 68.7083 56.114C70.5963 54.1848 72.8703 53.2273 75.5209 53.2273H81.9709V72.7058ZM91.8156 63.144H105.697C105.697 60.8925 104.934 58.9774 103.413 57.3939C101.893 55.8197 100.047 55.0256 97.875 55.0256C95.7265 55.0256 93.885 55.8244 92.3504 57.4219C90.8204 59.0194 90.0531 60.9533 90.0531 63.2094C90.0531 65.4048 90.8158 67.2873 92.3364 68.8521C93.8571 70.4169 95.7033 71.197 97.875 71.197H105.697V73H97.875C95.201 73 92.927 72.0425 91.0483 70.1367C89.1696 68.2262 88.2302 65.9186 88.2302 63.2094C88.2302 60.4815 89.1742 58.1366 91.0623 56.1747C92.9549 54.2082 95.2243 53.2273 97.875 53.2273C100.526 53.2273 102.795 54.1989 104.688 56.142C106.576 58.0805 107.52 60.4301 107.52 63.1767V64.9471H91.8156V63.144ZM16.7504 53.1619V72.6404H14.9275V54.9602H9.64938C7.49629 54.9602 5.65477 55.731 4.12482 57.2631C2.59022 58.8046 1.82757 60.659 1.82757 62.8357C1.82757 65.0311 2.58557 66.9136 4.10622 68.4878C5.62687 70.0526 7.47304 70.8373 9.64938 70.8373H13.165V72.6404H9.64938C6.97546 72.6404 4.69681 71.6828 2.81808 69.7676C0.939362 67.8572 0 65.545 0 62.8357C0 60.1685 0.939362 57.8844 2.81808 55.9972C4.69681 54.1054 6.97546 53.1619 9.64938 53.1619H16.7504ZM23.0097 53.1619H24.8326V61.0514H37.2815V53.1619H39.1091V72.6404H37.2815V62.8497H24.8326V72.6404H23.0097V53.1619Z" fill="white"/>
<path d="M69.9962 36.4206C66.2016 38.7234 62.193 41.1851 58.2774 43.2451C58.1054 43.3338 57.924 43.4272 57.738 43.5113C57.552 43.5954 57.366 43.6748 57.1939 43.7449C57.0172 43.8103 56.8405 43.8757 56.6545 43.9364C56.4731 43.9971 56.2918 44.0485 56.1197 44.0905C55.4036 44.2727 54.7153 44.3568 54.0364 44.3194C53.3528 44.2821 52.6785 44.1232 51.9949 43.8196C51.8879 43.7682 51.781 43.7169 51.674 43.6608L51.6554 43.6468C48.7769 41.9699 48.6606 39.298 48.5676 35.9722C45.8983 35.449 43.5499 34.1551 41.5224 32.0905C38.8066 29.3299 37.4487 25.99 37.4487 22.071C37.4487 18.2126 38.8066 14.9195 41.5224 12.1916C43.5453 10.155 45.8844 8.87977 48.5444 8.36127V7.16547C48.5444 6.73573 48.5676 6.32 48.6095 5.92296C48.656 5.52124 48.7211 5.13821 48.8094 4.77387C49.1489 3.34918 49.8325 2.12535 50.8184 1.27054C51.7484 0.471781 52.9389 0 54.3665 0C54.7014 0 55.0455 0.0280266 55.3943 0.0840799C55.7477 0.140133 56.1011 0.219542 56.4545 0.326977C56.8172 0.434413 57.1846 0.569875 57.5566 0.733363C57.9194 0.896852 58.2914 1.0837 58.6634 1.29857C67.3455 6.33402 76.0649 11.3274 84.7144 16.4096C86.5978 17.5587 88.2719 19.2636 88.5137 21.5758C88.8067 24.3458 87.4442 26.004 85.2864 27.3913C81.8173 29.6148 69.9962 36.4206 69.9962 36.4206ZM50.8602 36.2291H50.8974C50.9997 39.6857 51.2741 40.0407 51.9205 40.8348C51.9902 40.9235 52.0646 40.9983 52.139 41.073C52.1948 41.1291 52.2553 41.1851 52.3065 41.2458C52.7947 41.6849 53.2691 41.9138 53.7759 41.9885C54.5619 42.1007 55.65 41.7597 56.4127 41.4607C56.8405 41.2926 57.3055 41.1104 57.7566 40.8535C64.4623 37.0979 75.0604 30.8433 84.3936 25.3127C84.8911 25.0184 85.3376 24.5934 85.6724 24.0982C86.1839 23.3415 86.4397 22.4306 86.2351 21.5758C85.9793 20.4828 85.026 19.4785 83.7844 18.5863L83.4588 18.3901L81.715 17.3718L57.5008 3.3305C57.2218 3.17168 56.9475 3.03155 56.6824 2.9101C56.4127 2.78865 56.1523 2.68588 55.8918 2.60648C55.6221 2.5224 55.3571 2.457 55.1059 2.41496C54.8548 2.37759 54.6084 2.35424 54.3665 2.35424C53.4272 2.35424 52.5948 2.67654 51.9716 3.41925C51.5159 3.95642 51.2229 4.65709 51.0648 5.39512C51.0044 5.66605 50.9579 5.94631 50.93 6.24059C50.9021 6.52553 50.8881 6.8385 50.8881 7.16547V8.09969C51.0602 8.09502 51.3159 8.09502 51.3857 8.09502H61.6536V36.2384H59.0168V10.6922H51.3857C48.2793 10.6922 45.6193 11.8039 43.4058 14.0227C41.1922 16.2461 40.0855 18.9226 40.0855 22.071C40.0855 25.2473 41.1876 27.9659 43.3825 30.2361C45.5821 32.5015 48.2467 33.6366 51.3857 33.6366H56.4731V36.2384H51.3857C51.209 36.2384 51.0369 36.2337 50.8602 36.2291Z" fill="#1A8A1A"/>
</svg>
